<?xml version="1.0" encoding="utf-8"?>
<!-- Generator: Adobe Illustrator 27.8.1, SVG Export Plug-In . SVG Version: 6.00 Build 0)  -->
<svg version="1.1" id="Layer_1" xmlns="http://www.w3.org/2000/svg" xmlns:xlink="http://www.w3.org/1999/xlink" x="0px" y="0px"
	 viewBox="0 0 66.59 66.59" style="enable-background:new 0 0 66.59 66.59;" xml:space="preserve">
<g>
	<path d="M23.57,33.32c0-2.81,0.05-5.63-0.02-8.44c-0.03-1.48,0.62-2.45,1.82-3.16c1.42-0.82,2.99-1.21,4.59-1.43
		c3.21-0.44,6.4-0.37,9.51,0.63c0.84,0.27,1.66,0.69,2.41,1.16c0.94,0.58,1.36,1.48,1.36,2.63c-0.03,5.7-0.03,11.4,0,17.09
		c0.01,1.36-0.58,2.29-1.67,2.97c-1.46,0.91-3.08,1.31-4.76,1.53c-3.26,0.44-6.48,0.37-9.64-0.63c-0.61-0.19-1.2-0.46-1.77-0.77
		c-1.23-0.67-1.88-1.66-1.85-3.14C23.61,38.95,23.57,36.13,23.57,33.32z M25.82,39.22c0,0.59,0,1.14,0,1.69
		c0,1.74,0.14,1.93,1.78,2.53c0.17,0.06,0.35,0.11,0.53,0.16c3.01,0.87,6.06,0.9,9.1,0.32c1.11-0.21,2.17-0.73,3.22-1.16
		c0.23-0.09,0.49-0.43,0.5-0.67c0.06-0.95,0.02-1.91,0.02-2.89C35.91,41,30.92,41.02,25.82,39.22z M40.99,33.23
		c-5.09,1.8-10.09,1.82-15.16,0.02c0,0.55,0,1.07,0,1.59c0,1.81,0.15,2.02,1.86,2.62c0.07,0.02,0.13,0.04,0.2,0.06
		c2.93,0.9,5.91,0.98,8.9,0.47c1.25-0.21,2.45-0.75,3.64-1.22c0.26-0.1,0.52-0.55,0.54-0.85C41.03,35.05,40.99,34.17,40.99,33.23z
		 M25.82,27.27c0,0.59,0,1.14,0,1.68c0,1.72,0.08,1.83,1.68,2.46c0.15,0.06,0.3,0.1,0.46,0.15c2.86,0.88,5.78,0.94,8.69,0.48
		c1.25-0.2,2.45-0.73,3.66-1.16c0.27-0.1,0.62-0.42,0.63-0.66c0.07-0.97,0.03-1.95,0.03-2.95C35.9,29.04,30.93,29.08,25.82,27.27z
		 M25.74,24.31c0.57,0.76,1.36,1.04,2.14,1.27c3.32,0.99,6.68,0.98,10.04,0.24c0.84-0.18,1.66-0.56,2.42-0.96
		c0.73-0.38,0.71-0.67-0.02-1.1c-0.45-0.27-0.94-0.5-1.44-0.66c-3.39-1.04-6.81-1.04-10.24-0.26
		C27.61,23.09,26.56,23.39,25.74,24.31z"/>
	<path d="M38.23,6.71c-0.87,0.47-1.68,0.9-2.58,1.39c4.47,2.97,8.51,6.34,12.22,10.02c-0.52,0.53-1.03,1.04-1.59,1.59
		c-6.71-6.55-14.2-12.16-23.32-15.57c0.24,1.19,0.46,2.26,0.69,3.4c-0.72,0.16-1.41,0.31-2.19,0.49c-0.25-1.15-0.49-2.26-0.73-3.37
		c-0.14-0.65-0.29-1.3-0.41-1.96c-0.11-0.62,0.11-1.16,0.74-1.31c1.96-0.47,3.94-0.88,5.99-1.33c0.16,0.76,0.31,1.45,0.47,2.21
		c-0.62,0.14-1.18,0.27-1.71,0.39c2.96,1.56,5.91,3.11,8.86,4.67c-0.14-0.28-0.31-0.6-0.51-1c1.01-0.54,2.02-1.08,3.06-1.64
		C37.56,5.37,37.88,6.01,38.23,6.71z"/>
	<path d="M62.21,21.38c-1.21,0.34-2.25,0.63-3.36,0.94c-0.21-0.72-0.4-1.4-0.62-2.15c0.73-0.22,1.4-0.42,2.07-0.62
		c0.95-0.28,1.9-0.55,2.86-0.81c1.03-0.29,1.52-0.02,1.82,1c0.49,1.68,0.97,3.36,1.45,5.04c0.04,0.13,0.04,0.26,0.06,0.45
		c-0.7,0.2-1.38,0.39-2.1,0.59c-0.2-0.65-0.38-1.24-0.61-2.03c-3.41,9.02-8.84,16.51-15.35,23.29c-0.49-0.55-0.97-1.09-1.51-1.69
		C53.44,38.55,59.06,30.84,62.21,21.38z"/>
	<path d="M45.26,62.18c-0.34-1.21-0.63-2.25-0.95-3.37c0.72-0.2,1.42-0.4,2.18-0.61c0.51,1.81,1.02,3.55,1.48,5.31
		c0.17,0.62-0.11,1.13-0.72,1.31c-1.91,0.59-3.83,1.12-5.82,1.7c-0.21-0.74-0.41-1.42-0.62-2.16c0.66-0.2,1.26-0.39,2.03-0.62
		c-9.02-3.41-16.53-8.86-23.34-15.41c0.1-0.12,0.17-0.21,0.24-0.29c0.41-0.43,0.83-0.86,1.3-1.34C28.1,53.4,35.8,59.02,45.26,62.18z
		"/>
	<path d="M7.6,42.99c0.17,0.77,0.31,1.44,0.47,2.19c-1.4,0.3-2.76,0.6-4.12,0.9c-0.41,0.09-0.81,0.19-1.22,0.25
		c-0.59,0.09-1.13-0.12-1.27-0.7c-0.49-1.98-0.9-3.98-1.36-6.05c0.78-0.17,1.47-0.31,2.21-0.47c0.14,0.61,0.27,1.17,0.45,1.92
		c3.68-8.59,9.05-15.82,15.45-22.3c0.53,0.53,1.05,1.04,1.59,1.59C13.21,27.07,7.6,34.57,4.19,43.69c0.66-0.14,1.19-0.25,1.72-0.36
		C6.45,43.22,6.99,43.12,7.6,42.99z"/>
	<path d="M63.06,39.43c0.6,1.66,1.23,3.26,1.75,4.9c0.82,2.6,1.33,5.27,1.34,8.01c0.01,3.5-0.75,6.77-3.17,9.46
		c-1.64,1.83-3.72,2.92-6.08,3.47c-2.52,0.58-5.07,0.54-7.69,0.12c0.1-0.65,0.15-1.29,0.31-1.9c0.03-0.13,0.43-0.23,0.65-0.23
		c1.75-0.02,3.51,0.18,5.23-0.04c4.62-0.58,7.65-3.69,8.31-8.3c0.51-3.55-0.12-6.98-1.19-10.34c-0.45-1.4-1-2.77-1.53-4.23
		C61.62,40.07,62.28,39.78,63.06,39.43z"/>
	<path d="M65.43,17.45c-0.73-0.11-1.42-0.22-2.17-0.34c0.07-0.93,0.16-1.81,0.2-2.7c0.1-2.38-0.19-4.7-1.37-6.82
		c-1.6-2.87-4.19-4.24-7.34-4.68c-3.55-0.49-6.97,0.21-10.34,1.29c-1.33,0.43-2.63,0.96-4.02,1.47c-0.29-0.66-0.58-1.32-0.89-2.02
		c2.75-1.2,5.52-2.15,8.43-2.7c2.6-0.48,5.21-0.64,7.83-0.17c5.32,0.96,8.88,4.59,9.75,9.93C65.87,12.94,65.8,15.16,65.43,17.45z"/>
	<path d="M14.83,63.81c0.07,0.79,0.13,1.47,0.2,2.22c-1.98,0.22-3.87,0.07-5.73-0.38c-6.05-1.46-9.04-6.27-9.13-12.03
		c-0.02-1.56,0.13-3.12,0.21-4.77c0.85,0.15,1.56,0.28,2.24,0.4c-0.07,1.45-0.22,2.83-0.2,4.2c0.03,2.62,0.66,5.07,2.44,7.1
		c1.89,2.16,4.4,3.03,7.17,3.24C12.93,63.87,13.85,63.81,14.83,63.81z"/>
	<path d="M2.73,14.8c-0.7,0.06-1.38,0.12-2.06,0.17C-0.12,8.23,3,1.46,10.97,0.28c2.25-0.33,4.5-0.21,6.8,0.17
		c-0.13,0.72-0.24,1.42-0.38,2.19c-0.67-0.07-1.3-0.15-1.93-0.21c-2.3-0.21-4.57-0.1-6.73,0.78c-3.53,1.43-5.28,4.23-5.77,7.89
		C2.79,12.29,2.81,13.52,2.73,14.8z"/>
	<path d="M25.92,60.73c1.27-0.64,2.46-1.23,3.72-1.86c0.35,0.63,0.69,1.27,1.08,1.98c-1.29,0.65-2.53,1.27-3.85,1.94
		C26.54,62.08,26.24,61.42,25.92,60.73z"/>
	<path d="M9.36,36.41c0.66-0.46,1.24-0.86,1.87-1.28c0.82,1.13,1.62,2.22,2.45,3.37c-0.59,0.46-1.14,0.9-1.77,1.39
		C11.05,38.73,10.23,37.61,9.36,36.41z"/>
	<path d="M19.84,17.14c1.08-0.98,2.1-1.91,3.18-2.88c0.5,0.58,0.97,1.13,1.48,1.72c-1.05,0.95-2.05,1.85-3.11,2.8
		C20.88,18.22,20.39,17.71,19.84,17.14z"/>
	<path d="M3.86,26.82c0.74-0.34,1.39-0.63,2.06-0.93c0.62,1.23,1.23,2.44,1.86,3.71c-0.62,0.34-1.24,0.68-1.97,1.09
		C5.17,29.4,4.53,28.15,3.86,26.82z"/>
	<path d="M57.62,29.84c-0.66,0.45-1.24,0.84-1.87,1.27c-0.83-1.14-1.62-2.24-2.45-3.38c0.59-0.45,1.17-0.89,1.79-1.37
		C55.95,27.52,56.77,28.65,57.62,29.84z"/>
	<path d="M35.16,55.43c1.16-0.84,2.23-1.62,3.38-2.46c0.45,0.58,0.9,1.15,1.39,1.78c-1.15,0.84-2.28,1.66-3.48,2.54
		C36.01,56.66,35.6,56.07,35.16,55.43z"/>
	<path d="M41.77,50.31c1.05-0.96,2.05-1.87,3.02-2.76c0.54,0.5,1.08,1,1.66,1.54c-1.08,0.99-2.11,1.93-3.19,2.92
		C42.75,51.44,42.29,50.91,41.77,50.31z"/>
	<path d="M29.87,9.02c0.43,0.63,0.83,1.21,1.27,1.87c-1.12,0.81-2.21,1.6-3.38,2.45c-0.45-0.59-0.89-1.16-1.38-1.8
		C27.55,10.69,28.69,9.87,29.87,9.02z"/>
	<path d="M52.4,23c-0.6,0.51-1.14,0.97-1.72,1.46c-0.95-1.04-1.85-2.04-2.8-3.09c0.55-0.53,1.08-1.03,1.64-1.56
		C50.47,20.87,51.41,21.9,52.4,23z"/>
	<path d="M14.64,43.22c0.58-0.51,1.11-0.97,1.69-1.49c0.94,1.03,1.87,2.04,2.75,3.01c-0.51,0.56-1,1.1-1.53,1.68
		C16.56,45.32,15.62,44.29,14.64,43.22z"/>
	<path d="M4.39,22.03c-0.73,0.25-1.37,0.47-2.13,0.73c-0.35-1.19-0.69-2.34-1.04-3.57c0.76-0.18,1.44-0.35,2.2-0.53
		C3.74,19.77,4.05,20.86,4.39,22.03z"/>
	<path d="M19.22,65.43c-0.19-0.81-0.34-1.5-0.51-2.21c1.12-0.32,2.2-0.63,3.35-0.97c0.24,0.68,0.47,1.34,0.74,2.12
		C21.62,64.73,20.47,65.07,19.22,65.43z"/>
	<path d="M58.4,35.34c0.65-0.37,1.26-0.72,1.96-1.12c0.53,0.98,1.04,1.94,1.59,2.97c-0.67,0.34-1.32,0.66-2.02,1.01
		C59.41,37.24,58.92,36.31,58.4,35.34z"/>
</g>
</svg>
