<?xml version="1.0" encoding="utf-8"?>
<!-- Generator: Adobe Illustrator 27.8.1, SVG Export Plug-In . SVG Version: 6.00 Build 0)  -->
<svg version="1.1" id="Layer_1" xmlns="http://www.w3.org/2000/svg" xmlns:xlink="http://www.w3.org/1999/xlink" x="0px" y="0px"
	 viewBox="0 0 65.92 70.92" style="enable-background:new 0 0 65.92 70.92;" xml:space="preserve">
<path d="M36.3,0c1.1,0.09,2.21,0.18,3.31,0.27c5.2,0.39,10.33,1.2,15.31,2.81c2.81,0.91,5.51,2.05,7.84,3.91
	c1.97,1.57,3.34,3.47,3.13,6.15c-0.13,1.6-0.94,2.88-1.99,4.02c-3.59,3.89-7.21,7.76-10.77,11.67c-4.59,5.03-9.13,10.09-13.71,15.13
	c-0.37,0.4-0.53,0.8-0.53,1.35c0.02,4.93,0,9.86,0.02,14.79c0,0.87-0.26,1.54-0.89,2.15c-2.71,2.66-5.38,5.36-8.06,8.04
	c-0.18,0.18-0.36,0.36-0.57,0.51c-0.94,0.66-2.07,0.21-2.29-0.91c-0.06-0.31-0.06-0.64-0.06-0.97c0-7.87-0.01-15.74,0.01-23.61
	c0-0.55-0.16-0.95-0.53-1.35C19.24,35.93,11.98,27.9,4.7,19.87c-0.98-1.08-2.06-2.06-3.02-3.15c-2.22-2.52-2.24-5.62-0.1-8.2
	c1.36-1.64,3.12-2.75,5-3.67c4.26-2.08,8.81-3.2,13.47-3.85c2.95-0.42,5.93-0.6,8.9-0.89c0.23-0.02,0.45-0.07,0.68-0.11
	C31.85,0,34.08,0,36.3,0z M32.96,2.81c-3.46,0.26-6.93,0.45-10.37,0.81C18.2,4.08,13.91,5.02,9.8,6.66C7.84,7.44,5.96,8.38,4.4,9.85
	c-1.51,1.43-1.82,2.87-0.89,4.38c0.27,0.45,0.64,0.86,1.03,1.21c2.1,1.92,4.67,2.96,7.32,3.83c5.98,1.97,12.18,2.77,18.44,2.88
	c3.67,0.07,7.36-0.09,11.02-0.37c5.14-0.39,10.17-1.39,14.97-3.32c1.89-0.76,3.7-1.69,5.22-3.1c1.84-1.71,1.92-3.51,0.22-5.31
	c-0.38-0.4-0.81-0.76-1.26-1.09c-2.54-1.82-5.43-2.85-8.41-3.67C45.81,3.57,39.42,3.01,32.96,2.81z M30.01,66.05
	c1.91-1.91,3.64-3.67,5.41-5.4c0.36-0.35,0.5-0.71,0.5-1.21c-0.02-4.91,0-9.81-0.02-14.72c0-0.89,0.24-1.58,0.85-2.25
	c5.99-6.59,11.96-13.2,17.94-19.81c0.15-0.16,0.29-0.33,0.55-0.64c-7.36,2.3-14.75,3.13-22.25,3.14c-7.52,0-14.93-0.83-22.29-3.14
	c0.25,0.3,0.38,0.45,0.52,0.61c5.99,6.62,11.98,13.25,17.98,19.86c0.59,0.65,0.83,1.33,0.83,2.19c-0.02,6.8-0.01,13.61-0.01,20.41
	C30.01,65.34,30.01,65.59,30.01,66.05z"/>
</svg>
