<?xml version="1.0" encoding="utf-8"?>
<!-- Generator: Adobe Illustrator 27.8.1, SVG Export Plug-In . SVG Version: 6.00 Build 0)  -->
<svg version="1.1" id="Layer_1" xmlns="http://www.w3.org/2000/svg" xmlns:xlink="http://www.w3.org/1999/xlink" x="0px" y="0px"
	 viewBox="0 0 66.26 66.26" style="enable-background:new 0 0 66.26 66.26;" xml:space="preserve">
<g>
	<path d="M23.16,40.08c1.83,0,3.58-0.02,5.33,0.01c2.08,0.03,3.78,1.33,4.28,3.28c0.12,0.48,0.17,1,0.17,1.51
		c0.01,5.42,0.01,10.84,0.01,16.26c0,2.94-1.85,4.79-4.8,4.79c-7.66,0.01-15.31,0.01-22.97,0c-2.99,0-4.82-1.85-4.82-4.85
		c0-5.4,0-10.79,0-16.19c0-2.95,1.85-4.8,4.79-4.81c1.63,0,3.27,0,5,0c0-0.37-0.01-0.68,0-0.99c0.05-1.88,1.48-3.41,3.36-3.47
		c2.1-0.06,4.2-0.06,6.29,0c1.88,0.05,3.32,1.57,3.37,3.45C23.17,39.36,23.16,39.66,23.16,40.08z M2.92,52.47
		c-0.01,0.27-0.03,0.47-0.03,0.68c0,2.65-0.01,5.3,0,7.96c0,1.6,0.67,2.27,2.28,2.28c7.66,0,15.31,0,22.97,0
		c1.6,0,2.27-0.68,2.28-2.28c0.01-2.65,0-5.3,0-7.96c0-0.22-0.03-0.44-0.05-0.68c-3.4,0-6.74,0-10.14,0c0,0.29,0.01,0.54,0,0.79
		c-0.03,1.02-0.49,1.48-1.5,1.48c-1.41,0.01-2.81,0.01-4.22,0c-0.92-0.01-1.39-0.48-1.42-1.41c-0.01-0.27,0-0.54,0-0.85
		C9.67,52.47,6.34,52.47,2.92,52.47z M13.05,49.88c0.01-0.22,0.03-0.37,0.03-0.53c0.02-1.35,0.39-1.71,1.75-1.71
		c1.08,0,2.17,0.05,3.25-0.01c1.77-0.09,2.27,0.48,2.15,2.02c0,0.06,0.03,0.13,0.05,0.23c3.35,0,6.71,0,10.13,0c0-1.67,0-3.3,0-4.94
		c0-1.66-0.69-2.34-2.36-2.34c-2.35,0-4.7,0-7.05,0c-5.21,0-10.42,0-15.63,0c-0.37,0-0.75,0.01-1.1,0.1
		c-0.73,0.19-1.29,0.68-1.31,1.43c-0.07,1.9-0.02,3.81-0.02,5.75C6.31,49.88,9.64,49.88,13.05,49.88z M20.6,40.04
		c0.15-1.37-0.15-1.91-1.07-1.92c-1.93-0.02-3.87-0.02-5.8,0c-0.67,0.01-1.05,0.41-1.09,1.09c-0.02,0.27,0,0.54,0,0.84
		C15.33,40.04,17.94,40.04,20.6,40.04z M17.65,50.2c-0.71,0-1.35,0-1.99,0c0,0.7,0,1.35,0,1.99c0.69,0,1.32,0,1.99,0
		C17.65,51.51,17.65,50.87,17.65,50.2z"/>
	<path d="M43.08,4.89c0-0.33,0-0.57,0-0.82c0.03-2.09,1.43-3.62,3.52-3.68c2-0.06,4.01-0.07,6.02,0c2.08,0.07,3.47,1.6,3.5,3.7
		c0,0.23,0,0.46,0,0.8c0.42,0,0.8,0,1.18,0c1.36,0,2.72-0.01,4.08,0c2.56,0.03,4.47,1.81,4.5,4.37c0.05,5.7,0.06,11.4,0,17.09
		c-0.03,2.53-1.91,4.32-4.45,4.33c-7.89,0.02-15.78,0.03-23.67,0c-2.55-0.01-4.42-1.86-4.44-4.42c-0.04-5.65-0.04-11.3,0-16.96
		c0.02-2.59,1.93-4.39,4.52-4.42C39.54,4.87,41.25,4.89,43.08,4.89z M63.32,17.28c-3.4,0-6.75,0-10.16,0c0,0.34,0.02,0.64,0,0.94
		c-0.05,0.83-0.53,1.32-1.37,1.33c-1.48,0.02-2.95,0.02-4.43,0c-0.8-0.01-1.27-0.5-1.33-1.3c-0.02-0.31,0-0.63,0-0.95
		c-3.44,0-6.79,0-10.16,0c-0.01,0.24-0.03,0.42-0.03,0.6c0,2.68-0.01,5.35,0,8.03c0,1.58,0.69,2.25,2.29,2.25
		c7.64,0,15.27,0,22.91,0c1.64,0,2.31-0.66,2.32-2.3c0.01-2.63,0-5.26,0-7.89C63.35,17.76,63.34,17.53,63.32,17.28z M53.21,14.67
		c3.4,0,6.75,0,10.15,0c0-1.76,0.02-3.46,0-5.17c-0.02-1.39-0.76-2.1-2.17-2.1c-1.71-0.01-3.41,0-5.12,0c-5.97,0-11.94,0-17.91,0
		c-1.62,0-2.3,0.69-2.31,2.32c0,0.78,0,1.57,0,2.35c0,0.87,0,1.73,0,2.61c3.45,0,6.8,0,10.16,0c0.01-0.19,0.03-0.32,0.03-0.46
		c0.03-1.44,0.39-1.8,1.81-1.8c0.97,0,1.94,0,2.9,0C52.95,12.41,53.01,12.47,53.21,14.67z M45.59,4.84c2.71,0,5.35,0,7.98,0
		c0.11-1.36-0.15-1.9-1.03-1.92c-1.96-0.04-3.91-0.03-5.87,0c-0.67,0.01-1.04,0.43-1.07,1.11C45.57,4.27,45.59,4.53,45.59,4.84z
		 M50.6,17c0-0.7,0-1.33,0-2c-0.68,0-1.33,0-1.98,0c0,0.7,0,1.34,0,2C49.29,17,49.9,17,50.6,17z"/>
	<path d="M48.51,40.15c-0.52,0.58-1.04,1.17-1.57,1.74c-0.59,0.64-1.33,0.73-1.89,0.23c-0.57-0.51-0.58-1.23,0.01-1.89
		c1.28-1.45,2.57-2.9,3.86-4.34c0.62-0.69,1.41-0.69,2.03,0c1.28,1.42,2.55,2.85,3.82,4.29c0.62,0.71,0.63,1.43,0.04,1.95
		c-0.57,0.51-1.31,0.4-1.93-0.29c-0.51-0.56-1.01-1.12-1.62-1.81c-0.02,0.36-0.05,0.57-0.05,0.78c0,1.8,0.01,3.6,0,5.4
		c-0.02,2.5-1.52,4.01-4.01,4.01c-2.79,0.01-5.58,0.01-8.37,0c-0.82,0-1.37-0.52-1.38-1.23c-0.01-0.7,0.55-1.23,1.36-1.28
		c0.18-0.01,0.37,0,0.55,0c2.54,0,5.07,0,7.61,0c1.39,0,1.7-0.31,1.7-1.7c0-1.93,0-3.86,0-5.79C48.61,40.18,48.56,40.17,48.51,40.15
		z"/>
	<path d="M15.04,26.09c0-0.98,0-1.97,0-2.95c0-1.06-0.01-2.12,0-3.18c0.04-2.37,1.56-3.88,3.93-3.88c2.79-0.01,5.58-0.01,8.37,0
		c0.81,0,1.25,0.31,1.42,0.95c0.22,0.82-0.39,1.55-1.37,1.56c-1.5,0.02-3,0.01-4.5,0.01c-1.36,0-2.72-0.01-4.08,0.01
		c-0.75,0.01-1.21,0.41-1.21,1.13c-0.02,2.12-0.01,4.24-0.01,6.58c0.66-0.74,1.2-1.35,1.75-1.95c0.52-0.56,1.2-0.66,1.73-0.29
		c0.61,0.43,0.77,1.23,0.25,1.82c-1.36,1.57-2.73,3.12-4.14,4.65c-0.53,0.57-1.29,0.52-1.83-0.08c-1.35-1.49-2.68-2.98-4-4.5
		c-0.52-0.59-0.47-1.31,0.07-1.79c0.52-0.47,1.26-0.44,1.79,0.12c0.57,0.6,1.11,1.23,1.67,1.84C14.93,26.11,14.98,26.1,15.04,26.09z
		"/>
</g>
</svg>
